<mxfile host="app.diagrams.net" agent="Mozilla/5.0 (Macintosh; Intel Mac OS X 10_15_7) AppleWebKit/605.1.15 (KHTML, like Gecko) Version/18.1 Safari/605.1.15" version="25.0.1">
  <diagram name="Page-1" id="3Qy_xiaoMVpN7aqP6ZHM">
    <mxGraphModel dx="569" dy="514" grid="1" gridSize="10" guides="1" tooltips="1" connect="1" arrows="1" fold="1" page="1" pageScale="1" pageWidth="850" pageHeight="1100" math="0" shadow="0">
      <root>
        <mxCell id="0" />
        <mxCell id="1" parent="0" />
        <mxCell id="H6XCLIZt9JtTEV1g60T0-5" value="" style="edgeStyle=orthogonalEdgeStyle;rounded=0;orthogonalLoop=1;jettySize=auto;html=1;" parent="1" source="H6XCLIZt9JtTEV1g60T0-1" target="H6XCLIZt9JtTEV1g60T0-4" edge="1">
          <mxGeometry relative="1" as="geometry" />
        </mxCell>
        <mxCell id="H6XCLIZt9JtTEV1g60T0-1" value="Start" style="rounded=1;whiteSpace=wrap;html=1;" parent="1" vertex="1">
          <mxGeometry x="365" y="120" width="120" height="20" as="geometry" />
        </mxCell>
        <mxCell id="H6XCLIZt9JtTEV1g60T0-7" value="" style="edgeStyle=orthogonalEdgeStyle;rounded=0;orthogonalLoop=1;jettySize=auto;html=1;" parent="1" source="H6XCLIZt9JtTEV1g60T0-4" target="H6XCLIZt9JtTEV1g60T0-6" edge="1">
          <mxGeometry relative="1" as="geometry" />
        </mxCell>
        <mxCell id="H6XCLIZt9JtTEV1g60T0-8" value="Yes" style="edgeLabel;html=1;align=center;verticalAlign=middle;resizable=0;points=[];" parent="H6XCLIZt9JtTEV1g60T0-7" vertex="1" connectable="0">
          <mxGeometry x="-0.0444" y="1" relative="1" as="geometry">
            <mxPoint as="offset" />
          </mxGeometry>
        </mxCell>
        <mxCell id="H6XCLIZt9JtTEV1g60T0-10" value="" style="edgeStyle=orthogonalEdgeStyle;rounded=0;orthogonalLoop=1;jettySize=auto;html=1;" parent="1" source="H6XCLIZt9JtTEV1g60T0-4" target="H6XCLIZt9JtTEV1g60T0-9" edge="1">
          <mxGeometry relative="1" as="geometry" />
        </mxCell>
        <mxCell id="H6XCLIZt9JtTEV1g60T0-11" value="No" style="edgeLabel;html=1;align=center;verticalAlign=middle;resizable=0;points=[];" parent="H6XCLIZt9JtTEV1g60T0-10" vertex="1" connectable="0">
          <mxGeometry x="-0.1778" y="1" relative="1" as="geometry">
            <mxPoint as="offset" />
          </mxGeometry>
        </mxCell>
        <mxCell id="H6XCLIZt9JtTEV1g60T0-4" value="Height &amp;gt; 120&amp;nbsp;" style="rhombus;whiteSpace=wrap;html=1;rounded=1;" parent="1" vertex="1">
          <mxGeometry x="355" y="170" width="140" height="80" as="geometry" />
        </mxCell>
        <mxCell id="H6XCLIZt9JtTEV1g60T0-13" value="" style="edgeStyle=orthogonalEdgeStyle;rounded=0;orthogonalLoop=1;jettySize=auto;html=1;" parent="1" source="H6XCLIZt9JtTEV1g60T0-6" target="H6XCLIZt9JtTEV1g60T0-12" edge="1">
          <mxGeometry relative="1" as="geometry" />
        </mxCell>
        <mxCell id="H6XCLIZt9JtTEV1g60T0-6" value="Can Ride" style="whiteSpace=wrap;html=1;rounded=1;" parent="1" vertex="1">
          <mxGeometry x="585" y="280" width="120" height="60" as="geometry" />
        </mxCell>
        <mxCell id="H6XCLIZt9JtTEV1g60T0-9" value="Can&#39;t ride" style="whiteSpace=wrap;html=1;rounded=1;" parent="1" vertex="1">
          <mxGeometry x="130" y="280" width="120" height="60" as="geometry" />
        </mxCell>
        <mxCell id="H6XCLIZt9JtTEV1g60T0-16" value="" style="edgeStyle=orthogonalEdgeStyle;rounded=0;orthogonalLoop=1;jettySize=auto;html=1;" parent="1" source="H6XCLIZt9JtTEV1g60T0-12" target="H6XCLIZt9JtTEV1g60T0-15" edge="1">
          <mxGeometry relative="1" as="geometry" />
        </mxCell>
        <mxCell id="H6XCLIZt9JtTEV1g60T0-17" value="Under 12" style="edgeLabel;html=1;align=center;verticalAlign=middle;resizable=0;points=[];" parent="H6XCLIZt9JtTEV1g60T0-16" vertex="1" connectable="0">
          <mxGeometry x="-0.2549" y="-1" relative="1" as="geometry">
            <mxPoint as="offset" />
          </mxGeometry>
        </mxCell>
        <mxCell id="H6XCLIZt9JtTEV1g60T0-19" value="" style="edgeStyle=orthogonalEdgeStyle;rounded=0;orthogonalLoop=1;jettySize=auto;html=1;" parent="1" source="H6XCLIZt9JtTEV1g60T0-12" target="H6XCLIZt9JtTEV1g60T0-18" edge="1">
          <mxGeometry relative="1" as="geometry" />
        </mxCell>
        <mxCell id="H6XCLIZt9JtTEV1g60T0-21" value="Over 18" style="edgeLabel;html=1;align=center;verticalAlign=middle;resizable=0;points=[];" parent="H6XCLIZt9JtTEV1g60T0-19" vertex="1" connectable="0">
          <mxGeometry x="-0.44" y="1" relative="1" as="geometry">
            <mxPoint y="-9" as="offset" />
          </mxGeometry>
        </mxCell>
        <mxCell id="H6XCLIZt9JtTEV1g60T0-23" value="" style="edgeStyle=orthogonalEdgeStyle;rounded=0;orthogonalLoop=1;jettySize=auto;html=1;" parent="1" source="H6XCLIZt9JtTEV1g60T0-12" target="H6XCLIZt9JtTEV1g60T0-22" edge="1">
          <mxGeometry relative="1" as="geometry" />
        </mxCell>
        <mxCell id="H6XCLIZt9JtTEV1g60T0-24" value="12 -18" style="edgeLabel;html=1;align=center;verticalAlign=middle;resizable=0;points=[];" parent="H6XCLIZt9JtTEV1g60T0-23" vertex="1" connectable="0">
          <mxGeometry x="-0.3778" y="-2" relative="1" as="geometry">
            <mxPoint as="offset" />
          </mxGeometry>
        </mxCell>
        <mxCell id="0Z_J9a-iH9DgMwEAHf2d-8" style="edgeStyle=orthogonalEdgeStyle;rounded=0;orthogonalLoop=1;jettySize=auto;html=1;entryX=0.5;entryY=0;entryDx=0;entryDy=0;" edge="1" parent="1" source="H6XCLIZt9JtTEV1g60T0-12" target="0Z_J9a-iH9DgMwEAHf2d-7">
          <mxGeometry relative="1" as="geometry" />
        </mxCell>
        <mxCell id="0Z_J9a-iH9DgMwEAHf2d-9" value="Age 45 - 55" style="edgeLabel;html=1;align=center;verticalAlign=middle;resizable=0;points=[];" vertex="1" connectable="0" parent="0Z_J9a-iH9DgMwEAHf2d-8">
          <mxGeometry x="0.1086" y="2" relative="1" as="geometry">
            <mxPoint y="-8" as="offset" />
          </mxGeometry>
        </mxCell>
        <mxCell id="H6XCLIZt9JtTEV1g60T0-12" value="Age" style="rhombus;whiteSpace=wrap;html=1;rounded=1;" parent="1" vertex="1">
          <mxGeometry x="605" y="410" width="80" height="80" as="geometry" />
        </mxCell>
        <mxCell id="0Z_J9a-iH9DgMwEAHf2d-6" style="edgeStyle=orthogonalEdgeStyle;rounded=0;orthogonalLoop=1;jettySize=auto;html=1;entryX=0;entryY=0.5;entryDx=0;entryDy=0;exitX=0.5;exitY=1;exitDx=0;exitDy=0;" edge="1" parent="1" source="H6XCLIZt9JtTEV1g60T0-15" target="0Z_J9a-iH9DgMwEAHf2d-1">
          <mxGeometry relative="1" as="geometry" />
        </mxCell>
        <mxCell id="H6XCLIZt9JtTEV1g60T0-15" value="$5" style="whiteSpace=wrap;html=1;rounded=1;" parent="1" vertex="1">
          <mxGeometry x="400" y="570" width="120" height="60" as="geometry" />
        </mxCell>
        <mxCell id="0Z_J9a-iH9DgMwEAHf2d-5" style="edgeStyle=orthogonalEdgeStyle;rounded=0;orthogonalLoop=1;jettySize=auto;html=1;entryX=1;entryY=0.5;entryDx=0;entryDy=0;exitX=0.5;exitY=1;exitDx=0;exitDy=0;" edge="1" parent="1" source="H6XCLIZt9JtTEV1g60T0-18" target="0Z_J9a-iH9DgMwEAHf2d-1">
          <mxGeometry relative="1" as="geometry" />
        </mxCell>
        <mxCell id="H6XCLIZt9JtTEV1g60T0-18" value="$12" style="whiteSpace=wrap;html=1;rounded=1;" parent="1" vertex="1">
          <mxGeometry x="770" y="570" width="120" height="60" as="geometry" />
        </mxCell>
        <mxCell id="0Z_J9a-iH9DgMwEAHf2d-4" style="edgeStyle=orthogonalEdgeStyle;rounded=0;orthogonalLoop=1;jettySize=auto;html=1;entryX=0.5;entryY=0;entryDx=0;entryDy=0;" edge="1" parent="1" source="H6XCLIZt9JtTEV1g60T0-22" target="0Z_J9a-iH9DgMwEAHf2d-1">
          <mxGeometry relative="1" as="geometry" />
        </mxCell>
        <mxCell id="H6XCLIZt9JtTEV1g60T0-22" value="$7" style="whiteSpace=wrap;html=1;rounded=1;" parent="1" vertex="1">
          <mxGeometry x="585" y="570" width="120" height="60" as="geometry" />
        </mxCell>
        <mxCell id="0Z_J9a-iH9DgMwEAHf2d-1" value="Photo?" style="rhombus;whiteSpace=wrap;html=1;rounded=1;" vertex="1" parent="1">
          <mxGeometry x="605" y="760" width="80" height="80" as="geometry" />
        </mxCell>
        <mxCell id="0Z_J9a-iH9DgMwEAHf2d-7" value="$0" style="whiteSpace=wrap;html=1;rounded=1;" vertex="1" parent="1">
          <mxGeometry x="1030" y="570" width="120" height="60" as="geometry" />
        </mxCell>
      </root>
    </mxGraphModel>
  </diagram>
</mxfile>
